<?xml version="1.0" encoding="utf-8"?>
<!-- Generator: Adobe Illustrator 18.1.1, SVG Export Plug-In . SVG Version: 6.00 Build 0)  -->
<!DOCTYPE svg PUBLIC "-//W3C//DTD SVG 1.1//EN" "http://www.w3.org/Graphics/SVG/1.1/DTD/svg11.dtd">
<svg version="1.1" xmlns="http://www.w3.org/2000/svg" xmlns:xlink="http://www.w3.org/1999/xlink" x="0px" y="0px" width="400px"
	 height="400px" viewBox="0 0 400 400" style="enable-background:new 0 0 400 400;" xml:space="preserve">
	<style>
	  .kool-aid {
	    fill: red;
	  }
	  .glare {
	    fill: white;
	  }

	  .oh-no {
	  	display: none;
	  }

	  @media (max-width: 360px) {
	  	.kool-aid {
	    	fill: orange;
	  	}
		  .oh-yeah {
		    display: none;
		  }
		  .oh-no {
		    display: block;
		  }
		}
	</style>
<g id="Layer_1">
	<g id="left-leg">
		<path id="leg-shadow" d="M91.4,283.5c-6.4,2-27.5,14.1-33.8,25c-4.9,8.6-4.6,15.7-3.5,19.6c0.8,2.9,4.8,8.8,3.7,10.5
			c-1.2,1.7-10.3,9.2-13.4,13.8c-14.4,21.2,11.3,30.7,24.9,24.8c13.7-5.8,27.2-14.5,32.7-21.7c7.5-9.8,3.5-27.5-6.7-28.5
			c-1.5-0.1,0.8-2.8,3.3-3.3s18.3-7.6,18.3-7.6L91.4,283.5z"/>
		<path id="leg-color" class="kool-aid" d="M88,287.7c0,0-6.2,3.3-10.3,6.5c-4.2,3.2-16.5,12.3-19,19.3S54,331,66.8,343.8
			c4.2,3.8-1.3,2.3-6-0.7s-15.5,9.8-16.2,14.5s-0.3,11.3,4.5,14.5s12,5.3,19.7,1.7c7.7-3.7,26.8-13,30.9-19.8s6.5-15.1-0.9-22.3
			c-0.3,3.8-0.8,8-3.3,10s-0.8-2.5-1-5s-1.3-9-3.1-8.5c-1.8,0.5-6.4,1.2-1.9-2.8s17.7-9.2,20.3-10.3C112.5,313.8,88,287.7,88,287.7z
			"/>
		<path id="glare_5_" class="glare" d="M77.2,301.3c-2.9,3.5-12.1,11-12.2,13.5s1.7,4.8,2.8,4c1.2-0.8,3.5-4.8,7.3-7.2
			c3.8-2.3,9-5,6.8-7.7S77.2,301.3,77.2,301.3z"/>
	</g>
	<g id="body">
		<path id="body-shadow" d="M358,169.8c0-23.8-10.5-38.5-35.8-42.9c0.1-5.8,2-8.8-7.2-13.6s-31.2-10.1-43.5-15.4
			c-19.9-8.6-49.6-32.1-63.1-34.4s-45.1-4.8-64.1,8.8c-1.9,1.3-7.4,10.2,1.6,10.5c2.1,0.1,5.1-1.1,7.4-1.6c-0.3,0.3-0.5,0.6-0.7,0.9
			c-1.5,2.1,2.1,15.8,0.6,24.3s-8.9,22.5-35.6,44S69,206.8,71,248.3c1.5,29.9,31.3,115.4,153.4,98.4c75.5-10.5,90.6-65.5,88-106.6
			C331.6,223.2,358,193.3,358,169.8z M310.1,221.1c-3.3-18.9-8.7-33.3-9.9-36.8c-2.8-8-7.5-20.6-2.4-35.9
			c15.2-7.3,31.5-10.1,40.9,5.2C348.5,169.3,336.5,195.4,310.1,221.1z"/>
		<path id="body-color" class="kool-aid" d="M152.2,120.9l1.8-0.9l3.8,1l4.4-2.7l3.3,1.5l4.2-2.8h3.3l4.7,0.6l2.5,1.2l6.3,0.7
			l6.5,1.3l3.7,1.6l5.3,1.3l4,1.7l6.4-1.3l3.9,2h6.7l4.7,2.6l9,4.4l5.5,0.8l8.2,3.3l3.3,3.6l5.4,3l3,2.4l4.2,2.4l2.2-1.1l4,2.7
			l6.5,1.6l2.5,2.4h5.5l5.3,0.8l0.8,3.2c0,0-3.9,10.1-1.1,14.5c2.8,4.3,8.3,26.4,10.8,33.9c2.3,7.5,5.7,23.4,5.5,38.5
			c-1.3,12.3-1.8,28.8-4.6,38.7c-2.5,8.7-9,18.2-14,23.8c-5,5.7-54.4,33.4-69.1,34.9s-36.3,4.2-58.4-1.7
			c-26.8-7.1-75.2-29.8-84.9-86c-9.7-56.5,43.4-100.8,52.1-107.5S149.1,128.9,152.2,120.9z"/>
		<path id="rim" class="glare" d="M155.8,68.5c-7.1,2.5-13.1,5.5-12.6,10.6c2.2,2.6,9.4,2.4,11.2,0.9s11.6-5.4,20.5-5.7
			s29.8-3.3,55,12.8s38.2,23.6,56.9,29.4s23.4,6.6,24.4,8.8s7.8,1.2,8.4,0s2.6-4.2-1.1-7.3s-16.8-7.1-28.7-10.1
			c-11.8-3-31-12.9-46.1-22.8s-26.7-19.6-46-20.3S167.2,64.5,155.8,68.5z"/>
		<path id="top" class="glare" d="M154.1,84.2c-0.7,1.3,5.1,20.3-0.8,30.9c1.5,2.3,5.8,2.8,5.8,2.8l3.5-1.9h5.3l3.3-2.4
			l3.5,1.7l3.3-1l2.2,2.7h7.7l6.2,2.6l9.7,2.3l8.6-0.6l3.3,1.7h6.3l9.8,5.4l5.8,3l7.5,0.9l7.2,4.8l7.5,4.3l4.9,4.5h6.3l3.2,4h5.8
			l5.3,2h6.7l1.2,1.4c0,0,2.2-6.1,4.7-10.8s10-14.1,10-14.1s2.5-2.7-6.6-5.2s-24.6-7.1-39.8-15c-15.2-7.9-36.2-22.2-48.2-26.7
			S161.1,71.9,154.1,84.2z"/>
		<g id="ice_1_">
			<path d="M255.4,172.4c-3.1,0-3.9-0.1-4.4-0.3c-2.1-0.7-10.5-9.1-14.6-13.2c-4.5,0.5-23.2,2.8-25,2.8c-1,0-2.8,0-8.6-14.8
				l-13.1,3.1l-0.4-0.2c-0.8-0.3-19.1-6.9-24-10c-1.7-1-3.9-4.3-6.4-20.6c-1.3-8.8-2-17.3-2.1-17.4l-0.1-1.2L197.8,88l12.2,12.4v6
				l31-3.1l0.5,0.7c0.3,0.4,6.4,8.3,9.9,15.4c4.3-1,14.7-1.4,17.7-1.5h0.1c5.1,0,8.9,5.2,11.8,8.9c0.9,1.3,1.8,2.4,2.5,3.1
				c2.7,2.6,8.1,10.9,7.6,13.7c-0.2,1.3-11.3,25.4-13.6,27C275.5,171.9,258.7,172.4,255.4,172.4z M251.9,169.3c0,0,0.6,0.1,3.4,0.1
				c7,0,18.5-0.7,20.4-1.3c1.9-2.4,11.9-22.9,12.4-25c0-1.3-4-8.4-6.7-10.9c-0.9-0.8-1.8-2-2.8-3.5c-2.4-3.3-5.8-7.7-9.4-7.7
				c-7.8,0.1-16.6,0.9-17.9,1.6l-1.4,0.8l-0.7-1.5c-2.7-6-8-13.2-9.7-15.4l-32.6,3.2v-8l-10.1-10.2L160,102.8
				c1.4,15.6,4.4,32.9,6.9,34.5c4.3,2.6,20.2,8.5,23,9.5l14.8-3.5l0.5,1.2c2.3,5.9,5.4,12.8,6.7,14.1c2.6-0.2,16.1-1.7,25-2.8
				l0.7-0.1l0.5,0.5C243.9,162.2,250.7,168.7,251.9,169.3L251.9,169.3z"/>
			<rect x="187.8" y="101.6" transform="matrix(-0.1819 -0.9833 0.9833 -0.1819 134.8176 318.3324)" width="24" height="3"/>
			<rect x="185.7" y="119.8" transform="matrix(-0.1929 -0.9812 0.9812 -0.1929 89.9265 344.7294)" width="2" height="31.1"/>
			<path d="M213.8,158.7l-2.8-1.2l3.9-9.3c-4.3-13.6-9.7-28.1-12.2-32.2c-0.7,4-0.2,15.9,0.8,26.3l-3,0.3c-0.8-8-2.4-27,0.4-29.9
				c0.5-0.5,1.2-0.7,1.8-0.5c1.1,0.3,2.8,0.7,9.3,18.6c3.1,8.5,5.8,17,5.8,17.1l0.2,0.5L213.8,158.7z"/>
			<path d="M240.3,159l-2.4-3.2c5.2-3.8,13.9-11.3,14.8-13.5c-0.4-2.6-2.8-14.5-4.1-20.6l3.9-0.8c0.2,0.8,3.9,18.6,4.2,21.1
				c0.2,1.4-0.2,3.2-7,9.3C246.1,154.5,242,157.7,240.3,159z"/>
			<polygon points="271.3,164.7 254.4,147.5 267.3,120.5 270,121.8 258,146.9 273.4,162.6 			"/>
			<rect x="233.7" y="126.6" transform="matrix(-0.1855 -0.9826 0.9826 -0.1855 136.9423 403.5539)" width="4" height="36.8"/>
		</g>
		<path id="handle" class="glare" d="M300,145.1c4.9-6.6,9.3-14.2,11.7-14.9c2.3-0.7,6.3,0,8.2-0.8
			c1.9-0.8,10.1-0.5,20.2,6.1s19.3,25,13.8,43.5c-6.2,20.4-20.1,36.9-40.7,57.6c0.3-4.9-0.9-11.6-1.2-14.5
			c7.3-8.2,23.2-25.4,29.8-38.7C355.4,155.7,329,128.1,300,145.1z"/>
	</g>
	<g id="face">
		<path id="left-eybow" d="M200,167.7c-9.8-1.2-19.3,1.3-22.7,4.2c-3.3,2.8-1.3,7,2.8,8.2c4.2,1.2,14.2-3,19.8-0.7
			c5.7,2.3,11.3,6.8,15.3,5.7s5.7-6,3-8.7C215.7,173.7,206.3,168.4,200,167.7z"/>
		<path id="right-eybow" d="M271.9,183.6c-8.6-0.5-16.6,2.6-19.2,5.6c-2.7,3-0.6,7.1,3.1,8c3.7,0.9,12-3.9,17-2
			c5.1,2,10.3,6.1,13.6,4.6c3.4-1.4,4.4-6.4,1.9-8.9C285.8,188.5,277.3,183.9,271.9,183.6z"/>
		<path id="left-eye" d="M205.5,200.1c-2.4-3.7-9.5-6.4-13.7-6.5c-4.3-0.1-16.4,2.8-16.2,14.3s12.2,11.7,14.9,11.7
			c2.8,0,10.4-6.3,9.4-12.2s1-2,2.3-1.8C203.7,205.8,209.2,205.8,205.5,200.1z"/>
		<path id="right-eye" d="M276.7,219.7c-2-3.5-6.7-6.4-10.3-6.6c-3.8-0.2-14.4,1.9-14.7,12.4s10.1,11.1,12.5,11.2s9.3-3.4,8.6-8.8
			c-0.6-5.3,1.1-2.1,2.2-1.8S279.6,225,276.7,219.7z"/>
		<path id="node" d="M213.2,234.5c-2.3,9.1,1.2,18,3.6,21.4s6.3,1.9,8.4-1.6c2.9-4.8-0.6-12,1.2-17.7c1.7-5.6,6.8-11.1,6.1-15
			s-5.4-4.1-8.4-2C221.2,221.8,214.6,228.7,213.2,234.5z"/>
		<path id="mouth" class="oh-yeah" d="M206.7,271.2c9,2.5,20.9,7,24.9,7s18.8-0.3,24.7-4.8c5.8-4.5,0-6.5,2.7-7.7s8.7-4,13.5,4.7s3.7,14,0,14.7
			s-6.4-0.5-7.8-1.5s-3.7-1-5.9,0.3c-2.2,1.3-14.2,5.3-18.5,5.8s-5.2,4.5-9.4,6.5s-18.2,10.3-32.1,5.5
			c-13.8-4.8-24.3-17.2-30.3-25.8c-6-8.7-15.7-11.3-22-18.8c-3.7,0-6.3,1.7-8.8-0.7c-2.5-2.3-4.8-5.8-2.2-10.2
			c2.3-3.7,10.7-9.3,16.2-9.5c5.5-0.3,10.3,3,9,6.4c-1.3,3.3-3.2,6-3.2,7.3s10.9,8.4,15.3,12C183,270.6,192.9,267.3,206.7,271.2z"/>

		<ellipse id="mouth--oh-no" class="oh-no" transform="matrix(0.9908 0.1351 -0.1351 0.9908 40.7467 -25.0609)" cx="205" cy="287.7" rx="15.2" ry="22.7"/>
		<path id="glare" class="glare" d="M105.8,230.8c-6.2-3-10-3.8-10.8-5.9c-0.8-2.1-4.7,14.5-3.2,25.9
			c1.8,13.5,5.5,25.5,7.8,27s5,0,7.8,0s-3-15.8-3-23.5s1.2-14.3,2.8-17.6S105.8,230.8,105.8,230.8z"/>
		<path id="glare_1_" class="glare" d="M281.5,217c2.2,3.5,5.5,15.5,4.5,26.2c0.2,2.5,7.3,0.5,10.5-1.2s0-25.5-3.8-30.5
			C287.5,213,281.5,217,281.5,217z"/>
	</g>
	<g id="left-arm">
		<path id="shadow_1_" d="M115.5,207.6c-14,0.1-42.8-15.5-46.2-49c-12-0.9-28.2-3.4-40.1-10.2
			S7.2,115,14.5,97.2c8-19.5,21.6-24.8,23.2-30.2s-0.1-8.2-3.9-9.8s-6.4-5.8-2.5-8.6s13.6-9.4,19.5-2.6c8-1.8,15.9-3.4,23.4-2
			s29.2,15.2,32.2,19.5s2.5,6.4-0.4,7s-5.5,2.2-4.8,3s6,1.4,8.5,4.8s3.4,5.9,3.4,5.9s5.4-0.9,6.4,0.2s5.4,15.2-2.2,19.9
			c-0.9,4.9-3.6,10.9-5.4,13.1s-5,12.2-5.8,15.6s1.5,13.4,3.9,15.8s11.6,9.1,17.4,13.9S141.4,190.9,115.5,207.6z"/>
		<path id="pitcher-body" class="kool-aid" d="M39.9,69c-1.4,2-11.8,10.6-15.4,15.6s-18,26.4-3,50.9c2.6,0,19.5-5,33.4-1.4
			s23.4,9.4,25.1,13.1c8-6.1,16.6-14.9,18.2-22.6s2.2-16.4-1.1-22.9S94,84.9,93.9,83.2s-7-4.4-7-4.4l-4.1-0.2L77,74.5L71,73h-8
			l-7.5-6.4l-5.6-1.2L39.9,69z"/>
		<path id="pitcher-bottom" class="kool-aid" d="M23.6,137.8c0,0,4.7-1.3,13.1-2.6c8.2-1.3,18,1.1,21.3,2.2
			c10.6,3.6,18.8,7.9,20.2,11.2s1.9,5-0.8,5.5s-9.4,2-18.9,0.8s-25.9-4.8-33.2-13.1c6.2-1.4,14.2-2.5,30,1c14,3.1,19.9,8.4,19.9,8.4
			s0.4-4.1-3.4-5.9c-3.8-1.8-14.5-5.6-24-7.1c-9.9-1.6-21.6,0.8-23,1S23.6,137.8,23.6,137.8z"/>
		<path id="arm_1_" class="kool-aid" d="M100.1,139.8c-3.4,1.3-14.9,15.6-27.4,18.2c1.5,9.4,3.4,24.8,17.9,34.9
			s20.2,13.4,22.4,12.8s13.2-6.8,15.5-16.9s3-18.4,0-21.9s-14-10.9-21.1-11.5C103.9,143.9,102.1,139,100.1,139.8z"/>
		<path id="finger_4_" class="kool-aid" d="M103,98.2c0,1.9,3.1,8.4,4.2,8s4-2.6,4-4.5s-4.4-5-6-4.6S103,98.2,103,98.2z"/>
		<path id="finger_3_" class="kool-aid" d="M112.6,86.4c-3.2,1.8-5.6,3.6-5.5,6.1s1.1,4.4,5.5,3.1s3.8,2.4,4.2,3.5
			s2.9-1.5,2.9-4.6s0.6-7.2-1-8.1S114.3,85.4,112.6,86.4z"/>
		<path id="finger_2_" class="kool-aid" d="M99.1,85.7c-1.1,0.5-1.4,3.7,0,5.6s3.8,5.9,4.5,3.9s1.5-6.2,2.9-7.2
			S103.9,83.8,99.1,85.7z"/>
		<path id="glare-shadow" d="M31.1,82.8c-2.9,1-6.5,6.6-7.5,9.8c-1.4,4.5-1.1,15-0.9,17.7s1.6-7.9,4.2-12s8.6-11.5,9.2-13.2
			C36.8,83.4,34.5,81.6,31.1,82.8z"/>
		<path id="glare_9_" class="glare" d="M31.6,84.2c0,0-3.9,2.2-6.2,8.1c-1.1,2.7-1.8,10.6-1.8,10.6s2.9-7.3,8-13.4
			C34.3,86.5,37,82.9,31.6,84.2z"/>
		<path id="glare_8_" class="glare" d="M84.3,147.2c11.2-7.2,18.2-23.4,18.1-29.6c0.1-10.7-3.7-15.8-5-20.6
			c-1.3-4.8-2.6-15.2-2.5-16.7c0.2-1.5-6.5-3.4-6.5-3.4H84l-9.3-5.2l-11.2-1.1l-7-6.1l-6.2-1.2L42.7,66H40c0,0-0.2-6.9,0-7.6
			c0.2-0.7,23.8-7.6,29.2-7.1S94,61.7,97.3,64.2c3.3,2.5,7.3,1.5,2.4-1.3S72.8,46.6,64.5,48.8c-8.3,2.2-23.2,7.5-26.8,7.5
			c-3.7,0-8-3.3-5.7-5.5S39.8,44,45.3,45s1,3.5-0.3,3.7s-7.5,1-8,0.8s-1.8,3,1.7,2.5s9.8-3,15.8-4.5s15-4.2,22.3-1
			s24.5,14,25.6,15.7c1.2,1.7,6,4.8,1.2,7.3s-6.8,7-6.8,9.8s-1.3,11.5,1.3,16.3s6.8,14.7,4.8,26.3S91.2,147.7,84.3,147.2z"/>
		<path id="shadow" d="M61,55c2,1.2,18.7,9.3,26,10.2s9.4,0,9.4,0l-3.2-1.4c0,0-9.1-0.5-13.1-2.2C76.1,60,61,53,61,53V55z"/>
		<g id="ice">
			<polygon points="50,82.6 39.3,73 50.7,67.7 53.8,57 54.8,57.3 51.9,68.9 42.2,73.4 50.2,81.4 60.5,76.6 63.7,64.2 54.5,55.6
				42.5,59.3 40.7,70.7 39.3,71.7 41,58.6 54.7,54.4 64.8,63.8 61.4,77.4 			"/>
			<polygon points="58.8,76.4 51,70.1 52.6,69 59.5,75.6 			"/>
			<path style="fill:none;stroke:#000000;stroke-miterlimit:10;" d="M71.2,62.9"/>
			<path d="M75.9,86.2L75.9,86.2c-1.2,0-10.8-0.5-12.8-1.8c-2.1-1.4,0-14.7,0.7-18.8v-0.3l7.4-2.9l12.3,3.9l1.4,16L75.9,86.2z
				 M64.9,66.7c-1.3,8-2.4,16.2-1.3,16.9c1.5,1,9.2,1.5,12.1,1.7l8.1-3.5L82.5,67l-11.4-3.1L64.9,66.7z"/>
			<polygon points="76,84 75,84 75.8,70 81.1,68.1 81.6,68.9 76.6,71.9 			"/>
			<polygon points="74.6,71.9 64.9,71 65,70 75,70 			"/>
			<polygon points="77.6,93.1 74.3,88.5 75.1,87.9 78.3,91.4 92.7,89.9 94.1,76.2 91.3,73.9 84.9,75.2 82.7,85.9 92.3,88.7 92,89.7
				80.7,86.9 83.9,73.9 91.6,72.8 95.2,75.8 93.6,90.8 			"/>
			<rect x="79.5" y="86.1" transform="matrix(-0.8277 -0.5612 0.5612 -0.8277 96.5834 206.5303)" width="1" height="4.7"/>
		</g>
		<path id="glare_7_" class="glare" d="M100.1,76c0,0-2.5,3-0.4,4.2s7.8,2.5,8.3,3.8s3.2,2.8,3.3,1.1
			c0.1-1.7-3.1-6.6-4.5-7.4C103,75.5,100.1,76,100.1,76z"/>
		<path id="glare_6_" class="glare" d="M107.1,116.8c1.7-2.8,5.7-6.2,6.4-15.2c0.5-7.2,2.3-4.8,1.8,2.8
			c-0.1,1-3.5,12.3-6.2,14.3C106.5,120.8,107.1,116.8,107.1,116.8z"/>
		<path id="glare_10_" class="glare" d="M106,158.1c0,0-0.5,4-0.9,5c-0.5,1,11.9,8.2,11.9,8.2l0.9-6.6
			C117.9,164.7,107.9,157.5,106,158.1z"/>
	</g>
	<g id="right-arm">
		<g id="arm">
			<path id="arm-color" class="kool-aid" d="M303.5,275c12.9,4.9,38.5-3.2,49.5-10s8.8-34.5-9.6-28.4
				c-2.6,0.9-30.1,6.9-37.1,11.1S300.9,274,303.5,275z"/>
			<path id="arm-shadow" d="M313.2,278L313.2,278c-4,0-7.4-0.5-10.2-1.6c-0.6-0.2-2.3-0.9-3-8.3c-0.6-6.4-0.1-18.2,5.5-21.6
				c5.6-3.4,23-7.7,32.3-10c2.6-0.6,4.6-1.1,5.1-1.3c1.9-0.6,3.7-1,5.4-1c5.8,0,10.2,3.7,12,10.1c2.1,7.3,0.2,17.8-6.6,21.9
				C344.6,271.9,326.5,278,313.2,278z M304.2,273.7c2.4,0.9,5.4,1.3,9,1.3l0,0c12.8,0,30.2-5.9,39-11.3c5.3-3.3,7-12.2,5.2-18.6
				c-0.8-3-3.1-7.9-9.1-7.9c-1.4,0-2.9,0.3-4.5,0.8c-0.7,0.2-2.5,0.7-5.4,1.4c-8.5,2.1-26.3,6.5-31.5,9.6c-1.8,1.1-3.2,4.2-3.9,8.7
				C302.1,264.8,303.2,272.3,304.2,273.7z"/>
		</g>
		<path id="hand-shadow" d="M348.2,241.6c-6.8-5.9-6-15.7-2-21.7c5-7.5,9-8.9,11.8-10.1c3.6-1.5,10.4,0.6,11.7,4.2
			c3.6,0.8,16.9,0.4,16.3,11.8c0,2.3,4,9.4,0,12.2c7.4,11.8-11,25-18.1,26.2c-5.6,1-13.6,3.2-21.1-7.6"/>
		<path id="hand" class="kool-aid" d="M355.2,218c0.1,3.2-1,9.5,2,11.1s6.2,0.9,7.6-1.2s4-8.4,3.1-11s-3.8-5.1-7.4-4.9
			s-7.1,2.1-8.5,4.2s-6.4,8.8-6.8,12.2c-0.4,4.3-0.1,7.5,2.4,9.6s2.9,2.8,2.2,3.5s0.4,0.6-2.9,0.8s-2.6-2.9-3.4-2.2
			s-2.2,13.9,0.6,14.6s2.9,2.6,6.2,4.5s4.4,3.6,8,3.1s9.1,0.1,11.9-1.6s12.4-8.6,13-11.1s2.4-6,1-8.2s-4.5-4.7-10-4.9
			s-9.8,2-10.7,3.9s-3,7.5,0,9.8s6.2,2.4,7.3,1s-2.5-3.9-1.1-4.9s0,1.1,2.2,2.2s4-0.4,5.2-1.1s3.8,1.1,1.5,2.4s-6.1,4.5-9.2,5.1
			s-7.2,0.8-9.4-3.8s0.2-6.8-0.6-9.5s-3-5.2-3-7.4s-3-2.9-3.4-5.9s-0.4-9.9,0.8-10.8S355.2,218,355.2,218z"/>
		<path id="finger_1_" class="kool-aid" d="M384.4,233.9c0.3-3.4-2.4-6.8-6-7.4s-7.9-1.8-9.2,0s-5.9,7.5-8.8,7.4
			s0.2,6.5,0.9,6.2s0.8-2.8,3.5-4.1s6.4-2.3,10.2-1.8C378.3,234.7,384,238.5,384.4,233.9z"/>
		<path id="finger" class="kool-aid" d="M370.5,217.8c-0.2,1.5-1.8,6.1,0,6s9.8,0.6,11.2,1.8s2.6-2.3,1.1-3.9
			c-1.5-1.6-4.7-3.9-6.8-4.5C373.7,216.4,370.7,216.4,370.5,217.8z"/>
		<path id="glare_4_" class="glare" d="M320.9,248c-1.9,1.1-0.6,4.2-0.6,4.2s3.3-0.3,9.2-1.4c5.6-1.1,7.9-2.4,7.9-2.4
			l0.5-3.9C338,244.4,325.9,245.2,320.9,248z"/>
	</g>
	<g id="right-leg">
		<path d="M242.7,311.7c10.6-4.7,25.8-8.5,41-4.5c8.4,2.2,15.6,9,14.2,30.2c-0.2,2.5,1.5,1.8,2,1.5c1-0.5,21.8-3,27.8,6.2
			s7.8,19.7-3.3,28.7c-11.2,9-36.6,26-53.7,22.7c-19.7-3.8-21.9-9.3-20.6-20.8c-3.3-10.2-1.8-22.3-1.2-25.5
			c0.7-3.2-4.5-2.7-11.8-4.2s-18.7-3-16.3-11.5C223,325.8,229.8,317.3,242.7,311.7z"/>
		<path class="kool-aid" d="M248,313.1c9.9-4.1,35-9.2,42.8,3.5s4,22,3.6,22.4s-16.8,7.8-19.4,14.5s3.2-0.5,5.9-2.4
			s12.5-10.2,23-10.6s21,1.7,24.2,10.6s-2,18.3-4.4,20c0,0-19,14.8-35.2,19.4s-28.2,1.2-33.6-4.8s0.5-17.6,0.5-17.6s-2.7,1.6-3-0.9
			c-1.8-13.2,1.1-28.1,5.6-34.8c-5.1,5.8-5.1,8.6-8.1,9.2s-25.4,1.8-25.6-5.2S233.6,319.1,248,313.1z"/>
		<path id="glare_3_" class="glare" d="M258.9,312c-1.9,1.1-0.6,4.2-0.6,4.2s8-2.2,14-1.2s6.7,0.7,6.7,0.7V312
			C279,312,263.9,309.2,258.9,312z"/>
		<path id="glare_2_" class="glare" d="M301.3,350c0,2.7,2.1,4,2.1,4s4-3.1,8.4-2s6.8,2,6.8,2s2.5-2.1,1-4s-6.6-3.4-9.8-3.2
			C305.9,347,301.3,348.9,301.3,350z"/>
	</g>
	<g id="quote">
		<path id="bubble" style="fill:#FFFFFF;stroke:#000000;stroke-width:3;stroke-miterlimit:10;" d="M252.5,55.8
			c-31.7,1.5-66.4,2-71.3,0.9c-4.9-1.1-0.3,5.1,3.2,14.3c-6.1-2.8-13.6-11.2-16.8-14.3s-68.4,6.9-65-24.4S145.1,2.6,211,3.4
			c49.2,0.6,95.6-6.2,91.5,24.1C298.8,54.9,275,55.8,252.5,55.8z"/>
		<g id="oh-yeah_1_" class="oh-yeah" >
			<g>
				<path d="M172.5,10.7h-23.2c0,0-0.6,2-1.3,3.3c-1.1-2.3-6.8-4-8-4c-1.9,0-3.8,0.3-5.5,1c-1.7,0.6-3.2,1.6-4.5,2.8
					c-1.3,1.2-2.3,2.6-3,4.1c-0.6,1.3-1.4,3.5-2.5,6.6l-1.8,5.2c-1.1,3.2-1.8,5.4-2.1,6.7c-0.4,1.6-0.3,3.2,0.3,4.6
					c0.2,0.4,0.3,0.8,0.6,1.1c0.1,0.7,0.2,1.3,0.4,1.9c0.6,1.5,1.7,2.7,3.3,3.4c1.4,0.7,3,1,4.9,1c1.9,0,3.8-0.3,5.5-1
					c1.6-0.6,3.2-1.6,3.2-1.6l0.7,2h22.2l11.9-34.1L172.5,10.7z"/>
				<polygon points="287,13.7 286,10.7 175,10.7 173.5,31.2 169.4,42.8 171,47.8 274.4,47.8 				"/>
			</g>
			<g>
				<path class="kool-aid" d="M142.3,30.3c-1.1,3-1.9,5.2-2.5,6.4c-0.6,1.3-1.4,2.4-2.5,3.4c-1.1,1-2.4,1.8-3.9,2.4
					s-3.1,0.8-4.8,0.8c-1.6,0-3-0.3-4.1-0.8c-1.1-0.5-1.9-1.3-2.3-2.4c-0.4-1.1-0.5-2.2-0.2-3.4c0.3-1.2,1-3.4,2.1-6.5l1.8-5.2
					c1.1-3,1.9-5.2,2.5-6.4c0.6-1.3,1.4-2.4,2.5-3.4c1.1-1,2.4-1.8,3.9-2.4c1.5-0.6,3.1-0.8,4.8-0.8c1.6,0,3,0.3,4.1,0.8
					c1.1,0.5,1.9,1.3,2.3,2.4c0.4,1.1,0.5,2.2,0.2,3.4c-0.3,1.2-1,3.4-2,6.5L142.3,30.3z M137.9,20.4c0.5-1.4,0.7-2.3,0.7-2.7
					c0-0.4-0.3-0.6-0.8-0.6c-0.4,0-0.8,0.2-1.1,0.5c-0.3,0.3-0.8,1.2-1.3,2.8l-4.9,14.1c-0.6,1.7-0.9,2.8-0.9,3.2
					c0,0.4,0.3,0.6,0.8,0.6c0.5,0,1-0.2,1.3-0.7c0.3-0.5,0.8-1.6,1.4-3.4L137.9,20.4z"/>
				<path class="kool-aid" d="M169.4,12.7l-10.5,30.1H151l4.4-12.6h-2.3l-4.4,12.6h-7.8l10.5-30.1h7.8l-3.8,10.8h2.3l3.8-10.8
					H169.4z"/>
				<path class="kool-aid" d="M195.9,12.7l-12.4,19.2l-3.8,10.9h-7.3l3.8-10.9l1.2-19.2h7.2c-0.9,5.9-1.7,9.8-2.2,11.9
					c1.6-3.2,3.7-7.2,6.3-11.9H195.9z"/>
				<path class="kool-aid" d="M197.2,12.7h13.1l-2.1,6h-5.2l-2,5.7h4.9l-2,5.7H199l-2.3,6.6h5.7l-2.1,6h-13.6L197.2,12.7z"/>
				<path class="kool-aid" d="M226.6,12.7l-6,30.1h-8l1.5-5.4h-2.8l-2.4,5.4h-8.1l14.5-30.1H226.6z M215.7,32
					c0.8-3.4,1.9-7.6,3.2-12.6c-2.8,5.8-4.8,10-5.9,12.6H215.7z"/>
				<path class="kool-aid" d="M250.4,12.7l-10.5,30.1H232l4.4-12.6h-2.3l-4.4,12.6h-7.8l10.5-30.1h7.8l-3.8,10.8h2.3l3.8-10.8
					H250.4z"/>
				<path class="kool-aid" d="M271.5,12.7L261,42.8h-7.8l4.4-12.6h-2.3l-4.4,12.6H243l10.5-30.1h7.8l-3.8,10.8h2.3l3.8-10.8
					H271.5z"/>
				<path class="kool-aid" d="M273.7,36.7l-2.1,6h-7l2.1-6H273.7z M282.7,12.7l-9.1,22.7h-5.8l6.7-22.7H282.7z"/>
			</g>
		</g>
		<g id="oh-no_1_" class="oh-no">
			<g style="display:inline;">
				<path d="M179,10.6h-22.2c0,0-1.3,3.4-1.6,3.1c-1.2-1.5-2.3-2-3.9-2.7c-1.4-0.7-3-1-4.9-1c-1.9,0-3.8,0.3-5.5,1
					c-1.7,0.6-3.2,1.6-4.5,2.8c-1.3,1.2-2.3,2.6-3,4.1c-0.6,1.3-1.4,3.5-2.5,6.6l-1.8,5.2c-1.1,3.2-1.8,5.4-2.1,6.7
					c-0.4,1.6-0.3,3.2,0.3,4.6c0.2,0.4,0.8,2.4,1,3c0.6,1.5,1.7,2.7,3.3,3.4c1.4,0.7,3,1,4.9,1c1.9,0,3.8-0.3,5.5-1
					c1.6-0.6,3.2-1.6,3.2-1.6l0.7,1.9H168L180,13.6L179,10.6z"/>
				<path d="M281,13.6l-1-3h-12.7l-1.5,5c-0.1-0.4-0.2-0.8-0.4-1.2c-0.6-1.5-1.7-2.7-3.3-3.4c-1.4-0.7-3-1-4.9-1
					c-1.9,0-3.8,0.3-5.5,1c-1.7,0.6-3.2,1.6-4.5,2.8c-0.9,0.8-1.6,1.7-2.2,2.6c0,0,0,0,0,0c-0.1-0.7-0.2-1.3-0.4-1.9
					c-0.6-1.5-1.7-2.7-3.3-3.4c-1.4-0.7-3-1-4.9-1c-1.9,0-3.8,0.3-5.5,1c-1.7,0.6-3.2,1.6-4.5,2.8c-0.9,0.8-1.6,1.7-2.2,2.6
					c0,0,0,0,0,0c-0.1-0.7-0.2-1.3-0.4-1.9c-0.6-1.5-1.7-2.7-3.3-3.4c-1.4-0.7-3-1-4.9-1c-1.9,0-3.8,0.3-5.5,1
					c-1.6,0.6-2.8,1.4-2.8,1.4l-1.1-1.8h-10.8L195,12l-0.4-1.4l-11.1,0l-11.4,32.1l1.5,5h21.7c0,0,1.3-4.4,1.4-4
					c0.6,1.5,2.4,2.9,4,3.7c1.4,0.7,3,1,4.9,1c1.9,0,3.8-0.3,5.5-1c1.7-0.6,3.2-1.6,4.5-2.8c0.8-0.8,2.4-1.3,2.6-0.7
					c0.6,1.5,1.7,2.7,3.3,3.4c1.4,0.7,3,1,4.9,1c1.9,0,3.8-0.3,5.5-1c1.7-0.6,3.2-1.6,4.5-2.8c0.9-0.8,2.4-1.3,2.6-0.7
					c0.6,1.5,1.7,2.7,3.3,3.4c1.4,0.7,3,1,4.9,1c1.9,0,3.8-0.3,5.5-1c1.6-0.6,3.6-1.8,3.6-1.8l0.7,2.1h11.3L281,13.6z"/>
			</g>
			<g style="display:inline;">
				<path class="kool-aid" d="M148.7,30.3c-1.1,3-1.9,5.2-2.5,6.4c-0.6,1.3-1.4,2.4-2.5,3.4c-1.1,1-2.4,1.8-3.9,2.4
					s-3.1,0.8-4.8,0.8c-1.6,0-3-0.3-4.1-0.8c-1.1-0.5-1.9-1.3-2.3-2.4c-0.4-1.1-0.5-2.2-0.2-3.4c0.3-1.2,1-3.4,2.1-6.5l1.8-5.2
					c1.1-3,1.9-5.2,2.5-6.4c0.6-1.3,1.4-2.4,2.5-3.4c1.1-1,2.4-1.8,3.9-2.4c1.5-0.6,3.1-0.8,4.8-0.8c1.6,0,3,0.3,4.1,0.8
					c1.1,0.5,1.9,1.3,2.3,2.4c0.4,1.1,0.5,2.2,0.2,3.4c-0.3,1.2-1,3.4-2,6.5L148.7,30.3z M144.3,20.4c0.5-1.4,0.7-2.3,0.7-2.7
					c0-0.4-0.3-0.6-0.8-0.6c-0.4,0-0.8,0.2-1.1,0.5c-0.3,0.3-0.8,1.2-1.3,2.8L137,34.4c-0.6,1.7-0.9,2.8-0.9,3.2
					c0,0.4,0.3,0.6,0.8,0.6c0.5,0,1-0.2,1.3-0.7c0.3-0.5,0.8-1.6,1.4-3.4L144.3,20.4z"/>
				<path class="kool-aid" d="M175.8,12.6l-10.5,30.1h-7.8l4.4-12.6h-2.3l-4.4,12.6h-7.8l10.5-30.1h7.8l-3.8,10.8h2.3l3.8-10.8
					H175.8z"/>
				<path class="kool-aid" d="M203.1,12.6l-10.5,30.1h-6.9l0.7-13.7l-4.8,13.7h-6.5l10.5-30.1h6.5l-0.3,13.6l4.7-13.6H203.1z"
					/>
				<path class="kool-aid" d="M218,30.3c-1.1,3-1.9,5.2-2.5,6.4c-0.6,1.3-1.4,2.4-2.5,3.4c-1.1,1-2.4,1.8-3.9,2.4
					s-3.1,0.8-4.8,0.8c-1.6,0-3-0.3-4.1-0.8c-1.1-0.5-1.9-1.3-2.3-2.4c-0.4-1.1-0.5-2.2-0.2-3.4c0.3-1.2,1-3.4,2.1-6.5l1.8-5.2
					c1.1-3,1.9-5.2,2.5-6.4c0.6-1.3,1.4-2.4,2.5-3.4c1.1-1,2.4-1.8,3.9-2.4c1.5-0.6,3.1-0.8,4.8-0.8c1.6,0,3,0.3,4.1,0.8
					c1.1,0.5,1.9,1.3,2.3,2.4c0.4,1.1,0.5,2.2,0.2,3.4c-0.3,1.2-1,3.4-2,6.5L218,30.3z M213.6,20.4c0.5-1.4,0.7-2.3,0.7-2.7
					c0-0.4-0.3-0.6-0.8-0.6c-0.4,0-0.8,0.2-1.1,0.5c-0.3,0.3-0.8,1.2-1.3,2.8l-4.9,14.1c-0.6,1.7-0.9,2.8-0.9,3.2
					c0,0.4,0.3,0.6,0.8,0.6c0.5,0,1-0.2,1.3-0.7c0.3-0.5,0.8-1.6,1.4-3.4L213.6,20.4z"/>
				<path class="kool-aid" d="M238.8,30.3c-1.1,3-1.9,5.2-2.5,6.4c-0.6,1.3-1.4,2.4-2.5,3.4c-1.1,1-2.4,1.8-3.9,2.4
					s-3.1,0.8-4.8,0.8c-1.6,0-3-0.3-4.1-0.8c-1.1-0.5-1.9-1.3-2.3-2.4s-0.5-2.2-0.2-3.4c0.3-1.2,1-3.4,2.1-6.5l1.8-5.2
					c1.1-3,1.9-5.2,2.5-6.4c0.6-1.3,1.4-2.4,2.5-3.4c1.1-1,2.4-1.8,3.9-2.4c1.5-0.6,3.1-0.8,4.8-0.8c1.6,0,3,0.3,4.1,0.8
					c1.1,0.5,1.9,1.3,2.3,2.4c0.4,1.1,0.5,2.2,0.2,3.4c-0.3,1.2-1,3.4-2,6.5L238.8,30.3z M234.4,20.4c0.5-1.4,0.7-2.3,0.7-2.7
					c0-0.4-0.3-0.6-0.8-0.6c-0.4,0-0.8,0.2-1.1,0.5s-0.8,1.2-1.3,2.8l-4.9,14.1c-0.6,1.7-0.9,2.8-0.9,3.2c0,0.4,0.3,0.6,0.8,0.6
					c0.5,0,1-0.2,1.3-0.7c0.3-0.5,0.8-1.6,1.4-3.4L234.4,20.4z"/>
				<path class="kool-aid" d="M259.6,30.3c-1.1,3-1.9,5.2-2.5,6.4c-0.6,1.3-1.4,2.4-2.5,3.4c-1.1,1-2.4,1.8-3.9,2.4
					s-3.1,0.8-4.8,0.8c-1.6,0-3-0.3-4.1-0.8c-1.1-0.5-1.9-1.3-2.3-2.4s-0.5-2.2-0.2-3.4c0.3-1.2,1-3.4,2.1-6.5l1.8-5.2
					c1.1-3,1.9-5.2,2.5-6.4c0.6-1.3,1.4-2.4,2.5-3.4c1.1-1,2.4-1.8,3.9-2.4c1.5-0.6,3.1-0.8,4.8-0.8c1.6,0,3,0.3,4.1,0.8
					c1.1,0.5,1.9,1.3,2.3,2.4c0.4,1.1,0.5,2.2,0.2,3.4c-0.3,1.2-1,3.4-2,6.5L259.6,30.3z M255.2,20.4c0.5-1.4,0.7-2.3,0.7-2.7
					c0-0.4-0.3-0.6-0.8-0.6c-0.4,0-0.8,0.2-1.1,0.5s-0.8,1.2-1.3,2.8l-4.9,14.1c-0.6,1.7-0.9,2.8-0.9,3.2c0,0.4,0.3,0.6,0.8,0.6
					c0.5,0,1-0.2,1.3-0.7c0.3-0.5,0.8-1.6,1.4-3.4L255.2,20.4z"/>
				<path class="kool-aid" d="M267.7,36.7l-2.1,6h-7l2.1-6H267.7z M276.7,12.6l-9.1,22.7h-5.8l6.7-22.7H276.7z"/>
			</g>
		</g>
	</g>
</g>
<g id="Layer_2">
</g>
</svg>
